<?xml version="1.0" encoding="utf-8"?>
<!-- Generator: Adobe Illustrator 25.1.0, SVG Export Plug-In . SVG Version: 6.00 Build 0)  -->
<svg version="1.1" id="Capa_1" xmlns="http://www.w3.org/2000/svg" xmlns:xlink="http://www.w3.org/1999/xlink" x="0px" y="0px"
	 viewBox="0 0 226.8 62.8" style="enable-background:new 0 0 226.8 62.8;" xml:space="preserve">
<style type="text/css">
	.st0{fill:#FFFFFF;}
	.st1{fill-rule:evenodd;clip-rule:evenodd;fill:#FFFFFF;}
</style>
<path class="st0" d="M76.5,24.5h4.1l-1.3,4.9h-4.1L71,45.7h-6.3l4.2-16.3H66l1.3-4.9h2.9l0.1-0.6c1.9-7.4,6.8-10.1,14.1-9l-1.5,4.9
	c-3.4-0.5-5.1-0.2-6.1,3.8L76.5,24.5z"/>
<path class="st0" d="M87.7,41.3c2.8,0,5-2.6,6-6.6c0.9-3.5,0-6.2-2.4-6.2c-3.5-0.1-5.2,3.6-6,6.3C84.3,38.3,84.9,41.3,87.7,41.3
	 M92.4,23.8c3,0,5.3,1,6.9,2.9c1.6,2,1.9,4.7,1,8.2s-2.7,6.3-5.4,8.2C92.3,45,89.5,46,86.5,46c-3.2,0-5.5-1-7-3.1s-1.8-4.7-0.9-8
	s2.6-6,5.2-8.1C86.4,24.8,89.3,23.8,92.4,23.8z"/>
<path class="st0" d="M117.2,39.5l-0.4,4.9c-4,1.4-10,2.7-13.3-1.6c-1.6-2.1-1.9-4.8-1.1-8.2c2.2-9.4,11.4-13.4,19.1-10.8l-2,5
	c-3.6-1.7-8.7-0.5-10.3,5.3C107.5,39.8,112.5,41.5,117.2,39.5"/>
<path class="st0" d="M202.3,44c-0.7,3.1-0.6,7.9,4.3,7.9c5.2,0,6.1-4,6.8-7.5c1-4.9,0.2-7.2-3.6-7.7C207.8,36.5,203.5,38.3,202.3,44
	 M142.8,32l-2.4,5.4c-2.2-1.8-7.7-2.7-8.7,0.7c-1.1,3.8,10.4,2.4,8.4,11.2s-13.7,10.3-20.6,6.5l2.6-5.7c2.6,1.7,9.7,3.5,10.4-0.2
	c0.9-4.5-11-2.8-8.3-11.5C126.6,30.7,136.7,28.4,142.8,32z M226.8,19.3l-7.5,39l-7.5-0.2l0.4-3.6c-2.2,2.4-6.3,4.2-9,4.2
	c-8.6,0-10.4-7.1-9.4-13.1c1.6-9.6,13.6-18.6,21.7-11.9l3.2-14.3L226.8,19.3L226.8,19.3z M163.2,50.7l-0.3,5.5
	c-10.7,4.2-24.1,1.6-20.3-12c2-7.1,7.6-13.7,15.6-13.7c10.6,0.1,10.2,9.3,8,16.2h-16.8c-0.2,3.9,2.3,5.3,5.5,5.3
	C158.4,52.1,160.7,51.7,163.2,50.7z M150.4,41.3h10.1C161.5,33.2,152.7,34.4,150.4,41.3z M188.8,50.7l-0.3,5.5
	c-10.7,4.2-24.1,1.6-20.3-12c2-7.1,7.6-13.7,15.6-13.7c10.6,0.1,10.2,9.3,8,16.2H175c-0.2,3.9,2.3,5.3,5.5,5.3
	C184,52.1,186.3,51.7,188.8,50.7z M176.1,41.3h10.1C187.2,33.2,178.4,34.4,176.1,41.3z"/>
<path class="st1" d="M49.3,4.7C44.5,1.8,40.8-0.2,28.1,0C15.2,0.2-2.3,5.9,0.3,20.3C2.7,31.7,6,42.9,10.5,53.8
	c1.9,4.5,4,6.4,8.2,6.4c3.5,1.9,6.9,2.7,10.2,2.7c3.7-0.1,6.8-1.1,10.2-2.9c4.8-0.7,6.6-2.1,8-6.1c4-10.9,6.5-22.1,8.7-33.4
	C57.1,14,56.6,9,49.3,4.7z M28.8,60.8c-3.5,0-6.3-6.9-6.3-15.5s2.8-15.5,6.3-15.5c3.4,0,6.3,6.9,6.3,15.5S32.3,60.8,28.8,60.8z
	 M53.1,20.5c-2,10.8-4,20.1-7.4,30.9c-0.4,1.6-1.9,3.4-2.8,4.2c-1.9,1.5-4.7,1.5-7.5,0.4c1.5-8.2,2.6-17.4,3.2-27.2
	c0.6-3.8-5.3-7-10.4-6.9c0,0,0,0,0,0c0,0-0.1,0-0.1,0c-4.3,0.1-10.7,3.1-10,8.3c0.7,4.6,1.3,8.8,1.9,12.7c0.8,4.7,1.6,9,2.7,13.4
	c-1.1,1-3.6,1.4-5,1.2c-2.4-0.3-3.8-1.5-5.2-4.4c-1.8-4-5.2-14.1-8.1-25c-2.7-11-2-17.8,7.9-21.3C17.6,4.4,22.9,3.7,28,3.7
	c6.7,0,11.8,0.6,15.9,2.2C50.9,8.9,54.5,13.3,53.1,20.5z"/>
<path class="st1" d="M19.5,11.9c-0.9-0.4-1.7-0.8-2.1-1.6c-6.4,0.2-9.7,2-11.2,5c-2.3,4.6,0.2,11.7,2,18c0.8,0.1,1.4,0.2,2,0.8
	c0.4,0.4,1.3,2,1.9,1.4c0.7-0.6-0.4-1.5-0.6-2c-1.7-3.2-2.3-9-0.8-13.3C12,16.1,15,12.6,19.5,11.9"/>
<path class="st1" d="M46.3,23.9c0.3-1.9,2.5-0.8,2.3,1.4C48,32.4,47.4,38,45.7,44.8c-0.1,0.4-0.5,1.6-1.3,1.4
	c-0.9-0.2-0.9-1.4-0.9-2.1L46.3,23.9z"/>
</svg>
